<?xml version="1.0" encoding="UTF-8" standalone="no"?>
<!DOCTYPE svg PUBLIC "-//W3C//DTD SVG 1.1//EN" "http://www.w3.org/Graphics/SVG/1.1/DTD/svg11.dtd">
<svg version="1.1" xmlns="http://www.w3.org/2000/svg" xmlns:xlink="http://www.w3.org/1999/xlink" preserveAspectRatio="xMidYMid meet" viewBox="0 0 640 640" width="640" height="640"><defs><path d="M399.41 403.36L398.95 404.46L398.37 405.54L397.67 406.61L396.85 407.66L395.92 408.69L394.87 409.7L393.71 410.7L392.44 411.68L391.06 412.63L389.59 413.57L388.01 414.48L386.33 415.37L384.56 416.24L382.69 417.08L380.73 417.89L378.69 418.68L376.56 419.44L374.34 420.17L372.05 420.88L369.68 421.55L367.23 422.19L364.72 422.8L362.13 423.38L359.47 423.92L356.75 424.43L353.97 424.9L351.13 425.34L348.23 425.74L345.27 426.1L342.27 426.42L339.22 426.7L336.11 426.94L332.97 427.14L329.78 427.3L326.56 427.41L323.3 427.48L320 427.5L316.7 427.48L313.44 427.41L310.22 427.3L307.03 427.14L303.89 426.94L300.78 426.7L297.73 426.42L294.73 426.1L291.77 425.74L288.87 425.34L286.03 424.9L283.25 424.43L280.53 423.92L277.87 423.38L275.28 422.8L272.77 422.19L270.32 421.55L267.95 420.88L265.66 420.17L263.44 419.44L261.31 418.68L259.27 417.89L257.31 417.08L255.44 416.24L253.67 415.37L251.99 414.48L250.41 413.57L248.94 412.63L247.56 411.68L246.29 410.7L245.13 409.7L244.08 408.69L243.15 407.66L242.33 406.61L241.63 405.54L241.05 404.46L240.59 403.36L240.27 402.25L240.07 401.13L240 400L192.17 180L191.7 178.92L190.96 176.73L190.43 174.51L190.11 172.27L190 170L190.11 167.73L190.43 165.49L190.96 163.27L191.7 161.08L192.64 158.92L193.78 156.79L195.11 154.69L196.63 152.62L198.34 150.59L200.22 148.6L202.28 146.65L204.52 144.73L206.92 142.86L209.49 141.04L212.21 139.26L215.1 137.53L218.13 135.84L221.31 134.21L224.63 132.64L228.09 131.12L231.69 129.65L235.42 128.25L239.27 126.9L243.24 125.62L247.34 124.4L251.54 123.25L255.86 122.16L260.28 121.14L264.8 120.2L269.42 119.33L274.13 118.53L278.93 117.81L283.81 117.16L288.78 116.6L293.81 116.12L298.93 115.72L304.1 115.41L309.34 115.18L314.64 115.05L320 115L325.36 115.05L330.66 115.18L335.9 115.41L341.07 115.72L346.19 116.12L351.22 116.6L356.19 117.16L361.07 117.81L365.87 118.53L370.58 119.33L375.2 120.2L379.72 121.14L384.14 122.16L388.46 123.25L392.66 124.4L396.76 125.62L400.73 126.9L404.58 128.25L408.31 129.65L411.91 131.12L415.37 132.64L418.69 134.21L421.87 135.84L424.9 137.53L427.79 139.26L430.51 141.04L433.08 142.86L435.48 144.73L437.72 146.65L439.78 148.6L441.66 150.59L443.37 152.62L444.89 154.69L446.22 156.79L447.36 158.92L448.3 161.08L449.04 163.27L449.57 165.49L449.89 167.73L450 170L449.89 172.27L449.57 174.51L449.04 176.73L448.3 178.92L447.83 180L400 400L399.93 401.13L399.73 402.25L399.41 403.36Z" id="e3SJTrX7Rx"></path><path d="M440 166.67C440 192.42 386.23 213.33 320 213.33C253.77 213.33 200 192.42 200 166.67C200 140.91 253.77 120 320 120C386.23 120 440 140.91 440 166.67Z" id="b7YSWZ48Z"></path></defs><g><g><g><use xlink:href="#e3SJTrX7Rx" opacity="1" fill="#645c65" fill-opacity="1"></use></g><g><use xlink:href="#b7YSWZ48Z" opacity="1" fill="#a0a0a0" fill-opacity="1"></use></g></g></g></svg>