<?xml version="1.0" encoding="UTF-8" standalone="no"?>
<!DOCTYPE svg PUBLIC "-//W3C//DTD SVG 1.1//EN" "http://www.w3.org/Graphics/SVG/1.1/DTD/svg11.dtd">
<svg version="1.1" xmlns="http://www.w3.org/2000/svg" xmlns:xlink="http://www.w3.org/1999/xlink" preserveAspectRatio="xMidYMid meet" viewBox="0 0 640 640" width="640" height="640"><defs><path d="M640 262.96C640 317.66 604.63 362.06 561.07 362.06C517.51 362.06 482.14 317.66 482.14 262.96C482.14 208.27 517.51 163.87 561.07 163.87C604.63 163.87 640 208.27 640 262.96Z" id="a26V7voIs1"></path><path d="M161.64 271.97C161.64 326.66 126.28 371.07 82.71 371.07C39.15 371.07 3.79 326.66 3.79 271.97C3.79 217.28 39.15 172.88 82.71 172.88C126.28 172.88 161.64 217.28 161.64 271.97Z" id="b9sWI1cK4"></path><path d="M151.43 256.26C173.49 289.35 168.74 331.34 140.81 349.95C112.89 368.57 72.3 356.81 50.24 323.72C28.18 290.62 32.93 248.64 60.86 230.02C88.78 211.41 129.37 223.16 151.43 256.26Z" id="b2V9MR8fZx"></path><path d="M496.02 237C473.96 270.1 478.72 312.08 506.64 330.7C534.57 349.32 575.15 337.56 597.21 304.46C619.28 271.37 614.52 229.39 586.59 210.77C558.67 192.15 518.09 203.91 496.02 237Z" id="gnreXjPyP"></path><path d="M460.38 443.14C460.38 520.2 399.79 582.77 325.15 582.77C250.51 582.77 189.92 520.2 189.92 443.14C189.92 366.07 250.51 303.5 325.15 303.5C399.79 303.5 460.38 366.07 460.38 443.14Z" id="d4t5DoKtb"></path><path d="M563.88 262.96C563.88 386.02 453.88 485.93 318.39 485.93C182.91 485.93 72.91 386.02 72.91 262.96C72.91 139.91 182.91 40 318.39 40C453.88 40 563.88 139.91 563.88 262.96Z" id="a2DhqaOwkz"></path><path d="M333.03 237.49C376.23 292.07 376.5 363.93 333.62 397.88C290.73 431.83 220.84 415.08 177.64 360.51C134.43 305.93 134.17 234.06 177.05 200.11C219.93 166.17 289.82 182.91 333.03 237.49Z" id="d1W64irRfO"></path><path d="M480.55 271.97C480.55 326.66 436.14 371.07 381.45 371.07C326.76 371.07 282.36 326.66 282.36 271.97C282.36 217.28 326.76 172.88 381.45 172.88C436.14 172.88 480.55 217.28 480.55 271.97Z" id="d1v37hzyS"></path><path d="M428.75 429.62C428.75 499.23 379.3 555.74 318.39 555.74C257.49 555.74 208.04 499.23 208.04 429.62C208.04 360.01 257.49 303.5 318.39 303.5C379.3 303.5 428.75 360.01 428.75 429.62Z" id="b2wrZ9e3aE"></path><path d="M403.97 456.65C403.97 496.42 372.69 528.72 334.16 528.72C295.62 528.72 264.34 496.42 264.34 456.65C264.34 416.87 295.62 384.58 334.16 384.58C372.69 384.58 403.97 416.87 403.97 456.65Z" id="a5WRRLUSoV"></path><path d="M390.46 427.37C390.46 475.85 359.18 515.2 320.64 515.2C282.11 515.2 250.83 475.85 250.83 427.37C250.83 378.89 282.11 339.54 320.64 339.54C359.18 339.54 390.46 378.89 390.46 427.37Z" id="c6Auikw6g"></path><path d="M426.5 262.96C426.5 275.39 416.4 285.48 403.97 285.48C391.54 285.48 381.45 275.39 381.45 262.96C381.45 250.53 391.54 240.44 403.97 240.44C416.4 240.44 426.5 250.53 426.5 262.96Z" id="e96eYTk3HJ"></path><path d="M247.93 268.78L247.89 270.05L247.79 271.31L247.61 272.58L247.35 273.85L247.02 275.12L246.61 276.37L246.13 277.61L245.58 278.8L244.98 279.94L244.31 281.03L243.59 282.08L242.82 283.08L242 284.03L241.12 284.93L240.21 285.77L239.25 286.56L238.25 287.3L237.21 287.97L236.14 288.59L235.04 289.15L233.91 289.65L232.75 290.08L231.57 290.46L230.37 290.77L229.16 291.01L227.92 291.18L226.68 291.29L225.42 291.33L224.16 291.29L222.89 291.19L221.62 291.01L220.35 290.75L219.09 290.42L217.83 290.01L216.59 289.53L215.41 288.99L214.26 288.38L213.17 287.72L212.12 286.99L211.12 286.22L210.17 285.4L209.27 284.52L208.43 283.61L207.64 282.65L206.91 281.65L206.23 280.61L205.61 279.54L205.05 278.44L204.55 277.31L204.12 276.16L203.74 274.98L203.44 273.77L203.19 272.56L203.02 271.32L202.91 270.08L202.87 268.82L202.91 267.56L203.02 266.29L203.2 265.02L203.45 263.75L203.78 262.49L204.19 261.23L204.67 260L205.22 258.81L205.82 257.66L206.49 256.57L207.21 255.52L207.98 254.52L208.03 254.47L247.92 268.71L247.93 268.78Z" id="b1P0paq4ER"></path></defs><g><g><g><use xlink:href="#a26V7voIs1" opacity="1" fill="#000000" fill-opacity="1"></use></g><g><use xlink:href="#b9sWI1cK4" opacity="1" fill="#000000" fill-opacity="1"></use></g><g><use xlink:href="#b2V9MR8fZx" opacity="1" fill="#ffffff" fill-opacity="1"></use></g><g><use xlink:href="#gnreXjPyP" opacity="1" fill="#ffffff" fill-opacity="1"></use></g><g><use xlink:href="#d4t5DoKtb" opacity="1" fill="#1c1515" fill-opacity="1"></use></g><g><use xlink:href="#a2DhqaOwkz" opacity="1" fill="#1c1515" fill-opacity="1"></use></g><g><use xlink:href="#d1W64irRfO" opacity="1" fill="#ffffff" fill-opacity="1"></use></g><g><use xlink:href="#d1v37hzyS" opacity="1" fill="#ffffff" fill-opacity="1"></use></g><g><use xlink:href="#b2wrZ9e3aE" opacity="1" fill="#ffffff" fill-opacity="1"></use></g><g><use xlink:href="#a5WRRLUSoV" opacity="1" fill="#1a1313" fill-opacity="1"></use></g><g><use xlink:href="#c6Auikw6g" opacity="1" fill="#ffffff" fill-opacity="1"></use></g><g><use xlink:href="#e96eYTk3HJ" opacity="1" fill="#1a1313" fill-opacity="1"></use></g><g><use xlink:href="#b1P0paq4ER" opacity="1" fill="#1a1313" fill-opacity="1"></use></g></g></g></svg>