<?xml version="1.0" encoding="UTF-8" standalone="no"?>
<!DOCTYPE svg PUBLIC "-//W3C//DTD SVG 1.1//EN" "http://www.w3.org/Graphics/SVG/1.1/DTD/svg11.dtd">
<svg version="1.1" xmlns="http://www.w3.org/2000/svg" xmlns:xlink="http://www.w3.org/1999/xlink" preserveAspectRatio="xMidYMid meet" viewBox="0 0 640 640" width="640" height="640"><defs><path d="M382 280.4C382 290.52 375.46 298.73 367.4 298.73C359.34 298.73 352.8 290.52 352.8 280.4C352.8 270.28 359.34 262.06 367.4 262.06C375.46 262.06 382 270.28 382 280.4Z" id="aFyyGrmRP"></path><path d="M293.5 282.06C293.5 292.18 286.96 300.4 278.9 300.4C270.84 300.4 264.3 292.18 264.3 282.06C264.3 271.95 270.84 263.73 278.9 263.73C286.96 263.73 293.5 271.95 293.5 282.06Z" id="aKGbGm96m"></path><path d="M291.61 279.16C295.69 285.28 294.81 293.05 289.65 296.49C284.48 299.93 276.97 297.76 272.89 291.64C268.81 285.51 269.69 277.75 274.85 274.3C280.02 270.86 287.53 273.03 291.61 279.16Z" id="b2Lf5moHYh"></path><path d="M355.36 275.59C351.28 281.72 352.16 289.48 357.33 292.93C362.49 296.37 370 294.2 374.08 288.07C378.17 281.95 377.29 274.18 372.12 270.74C366.95 267.3 359.44 269.47 355.36 275.59Z" id="bfy9226US"></path><path d="M348.77 313.73C348.77 327.99 337.56 339.56 323.75 339.56C309.94 339.56 298.73 327.99 298.73 313.73C298.73 299.47 309.94 287.9 323.75 287.9C337.56 287.9 348.77 299.47 348.77 313.73Z" id="d1L9LE4VY"></path><path d="M367.92 280.4C367.92 303.16 347.57 321.65 322.5 321.65C297.43 321.65 277.08 303.16 277.08 280.4C277.08 257.63 297.43 239.15 322.5 239.15C347.57 239.15 367.92 257.63 367.92 280.4Z" id="e60YQDU57z"></path><path d="M325.21 275.68C333.2 285.78 333.25 299.08 325.32 305.36C317.38 311.64 304.45 308.54 296.46 298.44C288.47 288.35 288.42 275.05 296.35 268.77C304.28 262.49 317.21 265.59 325.21 275.68Z" id="l6lCnPZnW7"></path><path d="M352.5 282.06C352.5 292.18 344.29 300.4 334.17 300.4C324.05 300.4 315.83 292.18 315.83 282.06C315.83 271.95 324.05 263.73 334.17 263.73C344.29 263.73 352.5 271.95 352.5 282.06Z" id="d5Pnn3rdkT"></path><path d="M342.92 311.23C342.92 324.11 333.77 334.56 322.5 334.56C311.23 334.56 302.08 324.11 302.08 311.23C302.08 298.35 311.23 287.9 322.5 287.9C333.77 287.9 342.92 298.35 342.92 311.23Z" id="e6ZVsB0p9q"></path><path d="M338.33 316.23L338.27 317.59L338.07 318.92L337.75 320.19L337.32 321.42L336.77 322.58L336.13 323.68L335.38 324.71L334.55 325.66L333.63 326.52L332.64 327.29L331.57 327.95L330.44 328.52L329.26 328.96L328.02 329.29L326.74 329.49L325.42 329.56L324.1 329.49L322.81 329.29L321.58 328.96L320.39 328.52L320.21 328.43L320.82 328.44L322.06 328.37L323.31 328.19L324.57 327.91L325.82 327.52L327.07 327.03L328.3 326.44L329.51 325.75L330.69 324.96L331.83 324.06L332.93 323.07L333.95 322L334.87 320.88L335.7 319.72L336.42 318.53L337.05 317.32L337.57 316.08L337.99 314.84L338.16 314.16L338.27 314.87L338.33 316.23Z" id="b1y1gihvUe"></path><path d="M342.5 280.4C342.5 282.7 340.63 284.56 338.33 284.56C336.03 284.56 334.17 282.7 334.17 280.4C334.17 278.1 336.03 276.23 338.33 276.23C340.63 276.23 342.5 278.1 342.5 280.4Z" id="atA5ObPob"></path><path d="M309.22 282.88L308.58 284.05L307.63 284.92L306.48 285.47L305.21 285.64L303.89 285.4L302.73 284.76L301.85 283.82L301.3 282.66L301.13 281.39L301.37 280.08L302.01 278.91L302.1 278.83L309.45 281.46L309.46 281.57L309.46 281.57L309.22 282.88Z" id="f2r08ckTFk"></path></defs><g><g><g><use xlink:href="#aFyyGrmRP" opacity="1" fill="#000000" fill-opacity="1"></use></g><g><use xlink:href="#aKGbGm96m" opacity="1" fill="#000000" fill-opacity="1"></use></g><g><use xlink:href="#b2Lf5moHYh" opacity="1" fill="#ffffff" fill-opacity="1"></use></g><g><use xlink:href="#bfy9226US" opacity="1" fill="#ffffff" fill-opacity="1"></use></g><g><use xlink:href="#d1L9LE4VY" opacity="1" fill="#1c1515" fill-opacity="1"></use></g><g><use xlink:href="#e60YQDU57z" opacity="1" fill="#1c1515" fill-opacity="1"></use></g><g><use xlink:href="#l6lCnPZnW7" opacity="1" fill="#ffffff" fill-opacity="1"></use></g><g><use xlink:href="#d5Pnn3rdkT" opacity="1" fill="#ffffff" fill-opacity="1"></use></g><g><use xlink:href="#e6ZVsB0p9q" opacity="1" fill="#ffffff" fill-opacity="1"></use></g><g><use xlink:href="#b1y1gihvUe" opacity="1" fill="#1a1313" fill-opacity="1"></use></g><g><use xlink:href="#atA5ObPob" opacity="1" fill="#1a1313" fill-opacity="1"></use></g><g><use xlink:href="#f2r08ckTFk" opacity="1" fill="#1a1313" fill-opacity="1"></use></g></g></g></svg>