<?xml version="1.0" encoding="UTF-8" standalone="no"?>
<!DOCTYPE svg PUBLIC "-//W3C//DTD SVG 1.1//EN" "http://www.w3.org/Graphics/SVG/1.1/DTD/svg11.dtd">
<svg version="1.1" xmlns="http://www.w3.org/2000/svg" xmlns:xlink="http://www.w3.org/1999/xlink" preserveAspectRatio="xMidYMid meet" viewBox="0 0 640 640" width="640" height="640"><defs><path d="M350.7 25.02L363.21 26.33L375.57 28.15L387.76 30.46L399.79 33.25L411.63 36.52L423.28 40.26L434.74 44.45L445.98 49.08L457 54.15L467.79 59.64L478.34 65.54L488.63 71.85L498.67 78.55L508.44 85.63L517.92 93.08L527.11 100.9L536.01 109.06L544.59 117.57L552.85 126.4L560.78 135.56L568.37 145.03L575.61 154.79L582.48 164.85L588.99 175.18L595.11 185.79L600.85 196.65L606.18 207.76L611.1 219.11L615.6 230.68L619.67 242.48L623.29 254.48L626.47 266.67L629.19 279.05L631.43 291.61L633.19 304.34L634.46 317.21L635.23 330.24L635.49 343.4L635.23 356.56L634.46 369.58L633.19 382.46L631.43 395.18L629.19 407.74L626.47 420.12L623.29 432.32L619.67 444.32L615.6 456.11L611.1 467.69L606.18 479.03L600.85 490.14L595.11 501.01L588.99 511.61L582.48 521.94L575.61 532L568.37 541.77L560.78 551.23L552.85 560.39L544.59 569.23L536.01 577.73L527.11 585.9L517.92 593.71L508.44 601.16L503.42 604.8L147.13 604.8L142.11 601.16L132.63 593.71L123.43 585.9L114.54 577.73L105.96 569.23L97.7 560.39L89.77 551.23L82.18 541.77L74.94 532L68.07 521.94L61.56 511.61L55.44 501.01L49.7 490.14L44.37 479.03L39.45 467.69L34.95 456.11L30.88 444.32L27.26 432.32L24.08 420.12L21.36 407.74L19.12 395.18L17.36 382.46L16.09 369.58L15.32 356.56L15.06 343.4L15.32 330.24L16.09 317.21L17.36 304.34L19.12 291.61L21.36 279.05L24.08 266.67L27.26 254.48L30.88 242.48L34.95 230.68L39.45 219.11L44.37 207.76L49.7 196.65L55.44 185.79L61.56 175.18L68.07 164.85L74.94 154.79L82.18 145.03L89.77 135.56L97.7 126.4L105.96 117.57L114.54 109.06L123.43 100.9L132.63 93.08L142.11 85.63L151.88 78.55L161.92 71.85L172.21 65.54L182.76 59.64L193.55 54.15L204.57 49.08L215.81 44.45L227.27 40.26L238.92 36.52L250.76 33.25L262.79 30.46L274.98 28.15L287.34 26.33L299.85 25.02L312.5 24.23L325.27 23.96L338.05 24.23L350.7 25.02Z" id="b1BFux4uAC"></path><path d="M506.47 381.81C506.47 482.55 425.38 564.34 325.51 564.34C225.63 564.34 144.55 482.55 144.55 381.81C144.55 281.06 225.63 199.27 325.51 199.27C425.38 199.27 506.47 281.06 506.47 381.81Z" id="a70B5FToLf"></path><path d="M346.74 334.27C346.74 368.9 319.02 397.02 284.88 397.02C250.74 397.02 223.02 368.9 223.02 334.27C223.02 299.64 250.74 271.52 284.88 271.52C319.02 271.52 346.74 299.64 346.74 334.27Z" id="a7kMtD0Tx"></path><path d="M427.99 334.27C427.99 368.9 400.27 397.02 366.13 397.02C331.99 397.02 304.27 368.9 304.27 334.27C304.27 299.64 331.99 271.52 366.13 271.52C400.27 271.52 427.99 299.64 427.99 334.27Z" id="dO0sKWf"></path><path d="M407.68 417.62C407.68 463.62 370.86 500.97 325.51 500.97C280.16 500.97 243.34 463.62 243.34 417.62C243.34 371.62 280.16 334.27 325.51 334.27C370.86 334.27 407.68 371.62 407.68 417.62Z" id="aml0EEeJn"></path><path d="M266.94 161.79L269.31 162.04L271.67 162.4L274 162.85L276.3 163.38L278.58 164.01L280.83 164.73L283.05 165.54L285.23 166.43L287.37 167.4L289.47 168.46L291.54 169.6L293.55 170.82L295.53 172.12L297.45 173.49L299.32 174.94L301.14 176.47L302.9 178.06L304.6 179.73L306.24 181.46L307.82 183.27L309.34 185.14L310.78 187.07L312.16 189.07L313.46 191.13L314.69 193.25L315.84 195.43L316.91 197.67L317.89 199.96L318.8 202.31L319.61 204.71L320.34 207.16L320.98 209.66L320.98 209.66L286.14 218.28L286.06 217.9L285.29 214.87L284.4 211.9L283.4 209L282.3 206.15L281.09 203.38L279.77 200.67L278.36 198.03L276.85 195.47L275.25 192.98L273.56 190.56L271.78 188.22L269.91 185.96L267.97 183.79L265.94 181.69L263.84 179.68L261.66 177.76L259.42 175.92L257.11 174.17L254.73 172.52L252.29 170.96L249.8 169.49L247.25 168.12L244.64 166.85L241.99 165.69L241.03 165.31L242.69 164.71L245.07 163.96L247.5 163.3L249.95 162.75L252.4 162.3L254.85 161.96L257.29 161.73L259.72 161.59L262.14 161.56L264.55 161.62L266.94 161.79Z" id="a11QV3mrGZ"></path><path d="M305.3 152.04L307.73 152.37L310.14 152.8L312.5 153.32L314.84 153.94L317.13 154.65L319.39 155.44L321.61 156.33L323.78 157.3L325.91 158.36L328 159.49L330.03 160.71L332.02 162L333.95 163.37L335.83 164.81L337.65 166.33L339.42 167.91L341.12 169.57L342.76 171.28L344.34 173.06L345.85 174.91L347.29 176.81L348.66 178.77L349.96 180.78L351.18 182.85L352.33 184.97L353.4 187.15L354.39 189.36L355.3 191.63L356.12 193.93L356.86 196.28L357.51 198.67L358.07 201.1L358.54 203.56L358.91 206.06L359.18 208.58L359.36 211.14L359.44 213.72L323.61 214.12L323.62 213.74L323.52 210.61L323.3 207.51L322.96 204.45L322.5 201.42L321.92 198.44L321.22 195.5L320.42 192.6L319.5 189.76L318.48 186.96L317.35 184.22L316.12 181.53L314.79 178.9L313.37 176.33L311.85 173.82L310.23 171.38L308.53 169L306.74 166.7L304.86 164.46L302.9 162.31L300.87 160.22L298.75 158.22L296.56 156.3L294.3 154.47L291.96 152.72L291.11 152.13L292.86 151.92L295.34 151.74L297.85 151.66L300.36 151.68L302.84 151.81L302.84 151.81L305.3 152.04Z" id="dXIxZUMe"></path><path d="M378.94 443.63L378.55 445.35L378.08 447.04L377.53 448.7L376.9 450.34L376.19 451.95L375.41 453.53L374.56 455.08L373.64 456.59L372.64 458.08L371.58 459.52L370.46 460.93L369.26 462.31L368.01 463.64L366.7 464.93L365.32 466.18L363.89 467.39L362.4 468.55L360.86 469.66L359.27 470.73L357.63 471.75L355.93 472.71L354.2 473.63L352.41 474.49L350.58 475.29L348.71 476.04L346.8 476.73L344.86 477.37L342.87 477.94L340.85 478.45L338.8 478.89L336.72 479.28L334.61 479.59L332.46 479.84L330.3 480.02L328.11 480.13L325.89 480.16L323.68 480.13L321.49 480.02L319.32 479.84L317.18 479.59L315.07 479.28L312.98 478.89L310.93 478.45L308.91 477.94L306.93 477.37L304.98 476.73L303.07 476.04L301.2 475.29L299.37 474.49L297.59 473.63L295.85 472.71L294.16 471.75L292.52 470.73L290.92 469.66L289.38 468.55L287.89 467.39L286.46 466.18L285.09 464.93L283.77 463.64L282.52 462.31L281.33 460.93L280.2 459.52L279.14 458.08L278.15 456.59L277.22 455.08L276.37 453.53L275.59 451.95L274.89 450.34L274.26 448.7L273.71 447.04L273.24 445.35L272.85 443.63L272.54 441.9L272.37 440.48L274.17 441.9L276.2 443.38L278.29 444.8L280.46 446.16L282.7 447.46L285 448.69L287.37 449.86L289.8 450.95L292.28 451.98L294.83 452.93L297.43 453.81L300.08 454.62L302.78 455.35L305.53 456L308.32 456.57L311.16 457.05L314.03 457.46L316.95 457.77L319.9 458L322.88 458.14L325.89 458.18L328.91 458.14L331.89 458L334.84 457.77L337.75 457.46L340.63 457.05L343.46 456.57L346.26 456L349.01 455.35L351.71 454.62L354.36 453.81L356.96 452.93L359.5 451.98L361.99 450.95L364.42 449.86L366.78 448.69L369.09 447.46L371.32 446.16L373.49 444.8L375.59 443.38L377.61 441.9L379.42 440.48L379.24 441.9L378.94 443.63Z" id="d1upfaraKF"></path><path d="M110.38 305.75C129.25 305.75 144.55 321.05 144.55 339.92C144.55 364 144.55 402.07 144.55 426.15C144.55 445.02 129.25 460.32 110.38 460.32C103.55 460.32 117.21 460.32 110.38 460.32C91.51 460.32 76.21 445.02 76.21 426.15C76.21 402.07 76.21 364 76.21 339.92C76.21 321.05 91.51 305.75 110.38 305.75C117.21 305.75 103.55 305.75 110.38 305.75Z" id="cnhS9a2rx"></path><path d="M540.63 305.75C559.5 305.75 574.8 321.05 574.8 339.92C574.8 364 574.8 402.07 574.8 426.15C574.8 445.02 559.5 460.32 540.63 460.32C533.8 460.32 547.47 460.32 540.63 460.32C521.76 460.32 506.47 445.02 506.47 426.15C506.47 402.07 506.47 364 506.47 339.92C506.47 321.05 521.76 305.75 540.63 305.75C547.47 305.75 533.8 305.75 540.63 305.75Z" id="aC9ETSUE"></path><path d="M343.14 98.93L351.81 99.75L360.38 100.88L368.84 102.33L377.18 104.08L385.39 106.12L393.47 108.45L401.42 111.07L409.21 113.97L416.85 117.14L424.34 120.57L431.65 124.26L438.79 128.2L445.75 132.38L452.52 136.81L459.1 141.47L465.48 146.35L471.64 151.46L477.6 156.77L483.32 162.29L488.82 168.02L494.09 173.93L499.1 180.04L503.87 186.32L508.38 192.78L512.63 199.41L516.61 206.2L520.3 213.14L523.72 220.24L526.84 227.47L529.66 234.84L532.17 242.34L534.38 249.96L536.26 257.7L537.82 265.55L539.04 273.5L539.92 281.55L540.45 289.69L540.63 297.92L540.45 306.14L539.92 314.28L539.04 322.33L537.82 330.28L536.26 338.13L534.38 345.87L532.17 353.49L529.66 360.99L526.84 368.36L523.72 375.6L520.3 382.69L517.51 387.93L517.62 387.15L518.52 378.3L519.11 369.36L519.39 360.32L519.34 351.19L518.97 342.07L518.28 333.05L517.29 324.14L515.98 315.35L514.38 306.68L512.49 298.13L510.31 289.73L507.86 281.46L505.13 273.35L502.14 265.39L498.88 257.6L495.37 249.98L491.62 242.53L487.63 235.27L483.4 228.21L478.94 221.34L474.27 214.68L469.38 208.23L464.28 202L458.98 196L453.48 190.23L447.79 184.7L441.93 179.43L435.88 174.4L429.67 169.64L423.29 165.15L416.76 160.93L410.07 157L403.24 153.35L396.28 150.01L389.18 146.96L381.96 144.23L374.62 141.82L367.17 139.73L359.61 137.97L351.95 136.56L344.2 135.48L336.37 134.76L328.45 134.41L320.46 134.41L312.48 134.79L304.59 135.53L296.8 136.63L289.11 138.07L281.52 139.86L274.05 141.98L266.7 144.42L259.48 147.19L252.39 150.27L245.44 153.65L238.64 157.33L231.98 161.3L225.48 165.55L219.15 170.08L212.98 174.87L206.99 179.93L201.18 185.24L195.56 190.79L190.14 196.59L184.91 202.62L179.89 208.87L175.08 215.34L170.48 222.01L166.12 228.89L161.98 235.97L158.08 243.23L154.42 250.68L151.01 258.29L147.85 266.08L144.95 274.02L142.33 282.11L139.97 290.35L137.89 298.72L136.1 307.22L134.6 315.85L133.4 324.59L132.5 333.44L131.9 342.38L131.63 351.42L131.67 360.55L132.04 369.67L132.73 378.69L133.73 387.6L133.89 388.65L130.71 382.69L127.3 375.6L124.18 368.36L121.36 360.99L118.84 353.49L116.64 345.87L114.75 338.13L113.2 330.28L111.98 322.33L111.09 314.28L110.56 306.14L110.38 297.92L110.56 289.69L111.09 281.55L111.98 273.5L113.2 265.55L114.75 257.7L116.64 249.96L118.84 242.34L121.36 234.84L124.18 227.47L127.3 220.24L130.71 213.14L134.41 206.2L138.38 199.41L142.63 192.78L147.14 186.32L151.91 180.04L156.93 173.93L162.19 168.02L167.69 162.29L173.42 156.77L179.37 151.46L185.54 146.35L191.91 141.47L198.49 136.81L205.26 132.38L212.22 128.2L219.36 124.26L226.68 120.57L234.16 117.14L241.8 113.97L249.6 111.07L257.54 108.45L265.62 106.12L273.84 104.08L282.17 102.33L290.63 100.88L299.2 99.75L307.87 98.93L316.65 98.44L325.51 98.27L334.37 98.44L343.14 98.93Z" id="nduvE7dmX"></path><path d="M489.01 582.93C500.74 582.93 510.25 592.44 510.25 604.17C510.25 608.67 510.25 600.93 510.25 605.43C510.25 617.16 500.74 626.67 489.01 626.67C417.55 626.67 224.4 626.67 152.94 626.67C141.21 626.67 131.71 617.16 131.71 605.43C131.71 600.93 131.71 608.67 131.71 604.17C131.71 592.44 141.21 582.93 152.94 582.93C224.4 582.93 417.55 582.93 489.01 582.93Z" id="accFFpx2c"></path></defs><g><g><g><use xlink:href="#b1BFux4uAC" opacity="1" fill="#ffffff" fill-opacity="1"></use><g><use xlink:href="#b1BFux4uAC" opacity="1" fill-opacity="0" stroke="#000000" stroke-width="1" stroke-opacity="1"></use></g><g><filter id="shadow11848096" x="-2.94" y="5.96" width="660.44" height="623.84" filterUnits="userSpaceOnUse" primitiveUnits="userSpaceOnUse"><feFlood></feFlood><feComposite in2="SourceAlpha" operator="out"></feComposite><feGaussianBlur stdDeviation="1.41"></feGaussianBlur><feOffset dx="-4" dy="-7" result="afterOffset"></feOffset><feFlood flood-color="#000000" flood-opacity="0.8"></feFlood><feComposite in2="afterOffset" operator="in"></feComposite><feMorphology operator="dilate" radius="2"></feMorphology><feComposite in2="SourceAlpha" operator="in"></feComposite></filter><path d="M350.7 25.02L363.21 26.33L375.57 28.15L387.76 30.46L399.79 33.25L411.63 36.52L423.28 40.26L434.74 44.45L445.98 49.08L457 54.15L467.79 59.64L478.34 65.54L488.63 71.85L498.67 78.55L508.44 85.63L517.92 93.08L527.11 100.9L536.01 109.06L544.59 117.57L552.85 126.4L560.78 135.56L568.37 145.03L575.61 154.79L582.48 164.85L588.99 175.18L595.11 185.79L600.85 196.65L606.18 207.76L611.1 219.11L615.6 230.68L619.67 242.48L623.29 254.48L626.47 266.67L629.19 279.05L631.43 291.61L633.19 304.34L634.46 317.21L635.23 330.24L635.49 343.4L635.23 356.56L634.46 369.58L633.19 382.46L631.43 395.18L629.19 407.74L626.47 420.12L623.29 432.32L619.67 444.32L615.6 456.11L611.1 467.69L606.18 479.03L600.85 490.14L595.11 501.01L588.99 511.61L582.48 521.94L575.61 532L568.37 541.77L560.78 551.23L552.85 560.39L544.59 569.23L536.01 577.73L527.11 585.9L517.92 593.71L508.44 601.16L503.42 604.8L147.13 604.8L142.11 601.16L132.63 593.71L123.43 585.9L114.54 577.73L105.96 569.23L97.7 560.39L89.77 551.23L82.18 541.77L74.94 532L68.07 521.94L61.56 511.61L55.44 501.01L49.7 490.14L44.37 479.03L39.45 467.69L34.95 456.11L30.88 444.32L27.26 432.32L24.08 420.12L21.36 407.74L19.12 395.18L17.36 382.46L16.09 369.58L15.32 356.56L15.06 343.4L15.32 330.24L16.09 317.21L17.36 304.34L19.12 291.61L21.36 279.05L24.08 266.67L27.26 254.48L30.88 242.48L34.95 230.68L39.45 219.11L44.37 207.76L49.7 196.65L55.44 185.79L61.56 175.18L68.07 164.85L74.94 154.79L82.18 145.03L89.77 135.56L97.7 126.4L105.96 117.57L114.54 109.06L123.43 100.9L132.63 93.08L142.11 85.63L151.88 78.55L161.92 71.85L172.21 65.54L182.76 59.64L193.55 54.15L204.57 49.08L215.81 44.45L227.27 40.26L238.92 36.52L250.76 33.25L262.79 30.46L274.98 28.15L287.34 26.33L299.85 25.02L312.5 24.23L325.27 23.96L338.05 24.23L350.7 25.02Z" id="b4KwO7slJh" fill="white" fill-opacity="1" filter="url(#shadow11848096)"></path></g></g><g><use xlink:href="#a70B5FToLf" opacity="1" fill="#2d2e29" fill-opacity="1"></use></g><g><use xlink:href="#a7kMtD0Tx" opacity="1" fill="#4f4f4e" fill-opacity="1"></use></g><g><use xlink:href="#dO0sKWf" opacity="1" fill="#4f4f4e" fill-opacity="1"></use></g><g><use xlink:href="#aml0EEeJn" opacity="1" fill="#4f4f4e" fill-opacity="1"></use></g><g><use xlink:href="#a11QV3mrGZ" opacity="1" fill="#2d2e29" fill-opacity="1"></use></g><g><use xlink:href="#dXIxZUMe" opacity="1" fill="#2d2e29" fill-opacity="1"></use></g><g><use xlink:href="#d1upfaraKF" opacity="1" fill="#000000" fill-opacity="1"></use></g><g><use xlink:href="#cnhS9a2rx" opacity="1" fill="#898c7d" fill-opacity="1"></use></g><g><use xlink:href="#aC9ETSUE" opacity="1" fill="#898c7d" fill-opacity="1"></use></g><g><use xlink:href="#nduvE7dmX" opacity="1" fill="#898c7d" fill-opacity="1"></use></g><g><use xlink:href="#accFFpx2c" opacity="1" fill="#333333" fill-opacity="1"></use><g><use xlink:href="#accFFpx2c" opacity="1" fill-opacity="0" stroke="#333333" stroke-width="1" stroke-opacity="1"></use></g></g></g></g></svg>