<?xml version="1.0" encoding="UTF-8" standalone="no"?>
<!DOCTYPE svg PUBLIC "-//W3C//DTD SVG 1.1//EN" "http://www.w3.org/Graphics/SVG/1.1/DTD/svg11.dtd">
<svg version="1.1" xmlns="http://www.w3.org/2000/svg" xmlns:xlink="http://www.w3.org/1999/xlink" preserveAspectRatio="xMidYMid meet" viewBox="0 0 640 640" width="640" height="640"><defs><path d="M396.67 17.5C392.48 27.74 392.1 28.67 395.52 20.29C392.13 28.61 387.28 36.25 381.2 42.87C380.65 43.48 379.26 45 377.03 47.42C374.42 49.39 372.79 50.62 372.14 51.11C361.72 58.97 350.38 65.54 338.38 70.67C338.05 70.81 337.21 71.17 335.87 71.74C328.76 75.31 324.32 77.54 322.54 78.43C315.73 81.85 310.84 88.18 309.24 95.63C308.68 98.27 307.26 104.85 305 115.4" id="a93QD03rT"></path><path d="M524.55 113.65C533.08 113.65 540 120.57 540 129.1C540 169.28 540 274.37 540 314.55C540 323.08 533.08 330 524.55 330C433.64 330 176.36 330 85.45 330C76.92 330 70 323.08 70 314.55C70 274.37 70 169.28 70 129.1C70 120.57 76.92 113.65 85.45 113.65C176.36 113.65 433.64 113.65 524.55 113.65Z" id="aDCmlRVtD"></path><path d="M397.5 290C401.64 290 405 293.36 405 297.5C405 302 405 308 405 312.5C405 316.64 401.64 320 397.5 320C391 320 379 320 372.5 320C368.36 320 365 316.64 365 312.5C365 308 365 302 365 297.5C365 293.36 368.36 290 372.5 290C379 290 391 290 397.5 290Z" id="b2wy9EQdfd"></path><path d="M433.57 290C437.12 290 440 292.88 440 296.43C440 301.14 440 308.86 440 313.57C440 317.12 437.12 320 433.57 320C428.86 320 421.14 320 416.43 320C412.88 320 410 317.12 410 313.57C410 308.86 410 301.14 410 296.43C410 292.88 412.88 290 416.43 290C421.14 290 428.86 290 433.57 290Z" id="b2C2uJvzrW"></path><path d="M453.57 250C457.12 250 460 252.88 460 256.43C460 261.14 460 268.86 460 273.57C460 277.12 457.12 280 453.57 280C448.86 280 441.14 280 436.43 280C432.88 280 430 277.12 430 273.57C430 268.86 430 261.14 430 256.43C430 252.88 432.88 250 436.43 250C441.14 250 448.86 250 453.57 250Z" id="awlX0uTqF"></path><path d="M193.57 290C197.12 290 200 292.88 200 296.43C200 301.14 200 308.86 200 313.57C200 317.12 197.12 320 193.57 320C188.86 320 181.14 320 176.43 320C172.88 320 170 317.12 170 313.57C170 308.86 170 301.14 170 296.43C170 292.88 172.88 290 176.43 290C181.14 290 188.86 290 193.57 290Z" id="cKZ3Eq8Y"></path><path d="M349.61 290C355.35 290 360 294.65 360 300.39C360 304.31 360 305.69 360 309.61C360 315.35 355.35 320 349.61 320C329.69 320 280.31 320 260.39 320C254.65 320 250 315.35 250 309.61C250 305.69 250 304.31 250 300.39C250 294.65 254.65 290 260.39 290C280.31 290 329.69 290 349.61 290Z" id="bivqarzjx"></path><path d="M237.5 290C241.64 290 245 293.36 245 297.5C245 302 245 308 245 312.5C245 316.64 241.64 320 237.5 320C231 320 219 320 212.5 320C208.36 320 205 316.64 205 312.5C205 308 205 302 205 297.5C205 293.36 208.36 290 212.5 290C219 290 231 290 237.5 290Z" id="e1HVOfWog"></path><path d="M373.57 250C377.12 250 380 252.88 380 256.43C380 261.14 380 268.86 380 273.57C380 277.12 377.12 280 373.57 280C368.86 280 361.14 280 356.43 280C352.88 280 350 277.12 350 273.57C350 268.86 350 261.14 350 256.43C350 252.88 352.88 250 356.43 250C361.14 250 368.86 250 373.57 250Z" id="e5n8gXE4LI"></path><path d="M493.57 250C497.12 250 500 252.88 500 256.43C500 261.14 500 268.86 500 273.57C500 277.12 497.12 280 493.57 280C488.86 280 481.14 280 476.43 280C472.88 280 470 277.12 470 273.57C470 268.86 470 261.14 470 256.43C470 252.88 472.88 250 476.43 250C481.14 250 488.86 250 493.57 250Z" id="f9ByJnwu3"></path><path d="M413.57 250C417.12 250 420 252.88 420 256.43C420 261.14 420 268.86 420 273.57C420 277.12 417.12 280 413.57 280C408.86 280 401.14 280 396.43 280C392.88 280 390 277.12 390 273.57C390 268.86 390 261.14 390 256.43C390 252.88 392.88 250 396.43 250C401.14 250 408.86 250 413.57 250Z" id="b8qJ4xVuT"></path><path d="M293.57 250C297.12 250 300 252.88 300 256.43C300 261.14 300 268.86 300 273.57C300 277.12 297.12 280 293.57 280C288.86 280 281.14 280 276.43 280C272.88 280 270 277.12 270 273.57C270 268.86 270 261.14 270 256.43C270 252.88 272.88 250 276.43 250C281.14 250 288.86 250 293.57 250Z" id="e1kH0p1ehb"></path><path d="M333.57 250C337.12 250 340 252.88 340 256.43C340 261.14 340 268.86 340 273.57C340 277.12 337.12 280 333.57 280C328.86 280 321.14 280 316.43 280C312.88 280 310 277.12 310 273.57C310 268.86 310 261.14 310 256.43C310 252.88 312.88 250 316.43 250C321.14 250 328.86 250 333.57 250Z" id="d1gXJWQ8FQ"></path><path d="M253.57 250C257.12 250 260 252.88 260 256.43C260 261.14 260 268.86 260 273.57C260 277.12 257.12 280 253.57 280C248.86 280 241.14 280 236.43 280C232.88 280 230 277.12 230 273.57C230 268.86 230 261.14 230 256.43C230 252.88 232.88 250 236.43 250C241.14 250 248.86 250 253.57 250Z" id="apjdx1s16"></path><path d="M213.57 250C217.12 250 220 252.88 220 256.43C220 261.14 220 268.86 220 273.57C220 277.12 217.12 280 213.57 280C208.86 280 201.14 280 196.43 280C192.88 280 190 277.12 190 273.57C190 268.86 190 261.14 190 256.43C190 252.88 192.88 250 196.43 250C201.14 250 208.86 250 213.57 250Z" id="b6MOZXGpTN"></path><path d="M133.57 250C137.12 250 140 252.88 140 256.43C140 261.14 140 268.86 140 273.57C140 277.12 137.12 280 133.57 280C128.86 280 121.14 280 116.43 280C112.88 280 110 277.12 110 273.57C110 268.86 110 261.14 110 256.43C110 252.88 112.88 250 116.43 250C121.14 250 128.86 250 133.57 250Z" id="e5nDfotwBf"></path><path d="M173.57 250C177.12 250 180 252.88 180 256.43C180 261.14 180 268.86 180 273.57C180 277.12 177.12 280 173.57 280C168.86 280 161.14 280 156.43 280C152.88 280 150 277.12 150 273.57C150 268.86 150 261.14 150 256.43C150 252.88 152.88 250 156.43 250C161.14 250 168.86 250 173.57 250Z" id="cP6fTfSaU"></path><path d="M373.57 210C377.12 210 380 212.88 380 216.43C380 221.14 380 228.86 380 233.57C380 237.12 377.12 240 373.57 240C368.86 240 361.14 240 356.43 240C352.88 240 350 237.12 350 233.57C350 228.86 350 221.14 350 216.43C350 212.88 352.88 210 356.43 210C361.14 210 368.86 210 373.57 210Z" id="a686ScZtxh"></path><path d="M493.57 210C497.12 210 500 212.88 500 216.43C500 221.14 500 228.86 500 233.57C500 237.12 497.12 240 493.57 240C488.86 240 481.14 240 476.43 240C472.88 240 470 237.12 470 233.57C470 228.86 470 221.14 470 216.43C470 212.88 472.88 210 476.43 210C481.14 210 488.86 210 493.57 210Z" id="aBOfu4aEO"></path><path d="M413.57 210C417.12 210 420 212.88 420 216.43C420 221.14 420 228.86 420 233.57C420 237.12 417.12 240 413.57 240C408.86 240 401.14 240 396.43 240C392.88 240 390 237.12 390 233.57C390 228.86 390 221.14 390 216.43C390 212.88 392.88 210 396.43 210C401.14 210 408.86 210 413.57 210Z" id="dJTi21ehY"></path><path d="M293.57 210C297.12 210 300 212.88 300 216.43C300 221.14 300 228.86 300 233.57C300 237.12 297.12 240 293.57 240C288.86 240 281.14 240 276.43 240C272.88 240 270 237.12 270 233.57C270 228.86 270 221.14 270 216.43C270 212.88 272.88 210 276.43 210C281.14 210 288.86 210 293.57 210Z" id="b16mu5qPNd"></path><path d="M333.57 210C337.12 210 340 212.88 340 216.43C340 221.14 340 228.86 340 233.57C340 237.12 337.12 240 333.57 240C328.86 240 321.14 240 316.43 240C312.88 240 310 237.12 310 233.57C310 228.86 310 221.14 310 216.43C310 212.88 312.88 210 316.43 210C321.14 210 328.86 210 333.57 210Z" id="jDdwlu0Vh"></path><path d="M253.57 210C257.12 210 260 212.88 260 216.43C260 221.14 260 228.86 260 233.57C260 237.12 257.12 240 253.57 240C248.86 240 241.14 240 236.43 240C232.88 240 230 237.12 230 233.57C230 228.86 230 221.14 230 216.43C230 212.88 232.88 210 236.43 210C241.14 210 248.86 210 253.57 210Z" id="ckdmwjoP"></path><path d="M213.57 210C217.12 210 220 212.88 220 216.43C220 221.14 220 228.86 220 233.57C220 237.12 217.12 240 213.57 240C208.86 240 201.14 240 196.43 240C192.88 240 190 237.12 190 233.57C190 228.86 190 221.14 190 216.43C190 212.88 192.88 210 196.43 210C201.14 210 208.86 210 213.57 210Z" id="a6fwOxk2Qr"></path><path d="M133.57 210C137.12 210 140 212.88 140 216.43C140 221.14 140 228.86 140 233.57C140 237.12 137.12 240 133.57 240C128.86 240 121.14 240 116.43 240C112.88 240 110 237.12 110 233.57C110 228.86 110 221.14 110 216.43C110 212.88 112.88 210 116.43 210C121.14 210 128.86 210 133.57 210Z" id="b1DxFWvt0I"></path><path d="M173.57 210C177.12 210 180 212.88 180 216.43C180 221.14 180 228.86 180 233.57C180 237.12 177.12 240 173.57 240C168.86 240 161.14 240 156.43 240C152.88 240 150 237.12 150 233.57C150 228.86 150 221.14 150 216.43C150 212.88 152.88 210 156.43 210C161.14 210 168.86 210 173.57 210Z" id="c4ZFYQgjOi"></path><path d="M453.57 210C457.12 210 460 212.88 460 216.43C460 221.14 460 228.86 460 233.57C460 237.12 457.12 240 453.57 240C448.86 240 441.14 240 436.43 240C432.88 240 430 237.12 430 233.57C430 228.86 430 221.14 430 216.43C430 212.88 432.88 210 436.43 210C441.14 210 448.86 210 453.57 210Z" id="c9Z4MNJfb"></path><path d="M493.57 170C497.12 170 500 172.88 500 176.43C500 181.14 500 188.86 500 193.57C500 197.12 497.12 200 493.57 200C488.86 200 481.14 200 476.43 200C472.88 200 470 197.12 470 193.57C470 188.86 470 181.14 470 176.43C470 172.88 472.88 170 476.43 170C481.14 170 488.86 170 493.57 170Z" id="b1D55fXO4o"></path><path d="M413.57 170C417.12 170 420 172.88 420 176.43C420 181.14 420 188.86 420 193.57C420 197.12 417.12 200 413.57 200C408.86 200 401.14 200 396.43 200C392.88 200 390 197.12 390 193.57C390 188.86 390 181.14 390 176.43C390 172.88 392.88 170 396.43 170C401.14 170 408.86 170 413.57 170Z" id="h5XrL3OVzb"></path><path d="M293.57 170C297.12 170 300 172.88 300 176.43C300 181.14 300 188.86 300 193.57C300 197.12 297.12 200 293.57 200C288.86 200 281.14 200 276.43 200C272.88 200 270 197.12 270 193.57C270 188.86 270 181.14 270 176.43C270 172.88 272.88 170 276.43 170C281.14 170 288.86 170 293.57 170Z" id="fc15EZk7e"></path><path d="M333.57 170C337.12 170 340 172.88 340 176.43C340 181.14 340 188.86 340 193.57C340 197.12 337.12 200 333.57 200C328.86 200 321.14 200 316.43 200C312.88 200 310 197.12 310 193.57C310 188.86 310 181.14 310 176.43C310 172.88 312.88 170 316.43 170C321.14 170 328.86 170 333.57 170Z" id="d29OvquluF"></path><path d="M253.57 170C257.12 170 260 172.88 260 176.43C260 181.14 260 188.86 260 193.57C260 197.12 257.12 200 253.57 200C248.86 200 241.14 200 236.43 200C232.88 200 230 197.12 230 193.57C230 188.86 230 181.14 230 176.43C230 172.88 232.88 170 236.43 170C241.14 170 248.86 170 253.57 170Z" id="c1uXZfk7mB"></path><path d="M213.57 170C217.12 170 220 172.88 220 176.43C220 181.14 220 188.86 220 193.57C220 197.12 217.12 200 213.57 200C208.86 200 201.14 200 196.43 200C192.88 200 190 197.12 190 193.57C190 188.86 190 181.14 190 176.43C190 172.88 192.88 170 196.43 170C201.14 170 208.86 170 213.57 170Z" id="bGq7i3sq"></path><path d="M133.57 170C137.12 170 140 172.88 140 176.43C140 181.14 140 188.86 140 193.57C140 197.12 137.12 200 133.57 200C128.86 200 121.14 200 116.43 200C112.88 200 110 197.12 110 193.57C110 188.86 110 181.14 110 176.43C110 172.88 112.88 170 116.43 170C121.14 170 128.86 170 133.57 170Z" id="b1xO1ZNDPc"></path><path d="M173.57 170C177.12 170 180 172.88 180 176.43C180 181.14 180 188.86 180 193.57C180 197.12 177.12 200 173.57 200C168.86 200 161.14 200 156.43 200C152.88 200 150 197.12 150 193.57C150 188.86 150 181.14 150 176.43C150 172.88 152.88 170 156.43 170C161.14 170 168.86 170 173.57 170Z" id="a4IWPA7Lv"></path><path d="M453.57 170C457.12 170 460 172.88 460 176.43C460 181.14 460 188.86 460 193.57C460 197.12 457.12 200 453.57 200C448.86 200 441.14 200 436.43 200C432.88 200 430 197.12 430 193.57C430 188.86 430 181.14 430 176.43C430 172.88 432.88 170 436.43 170C441.14 170 448.86 170 453.57 170Z" id="aldT9G0Mw"></path><path d="M373.57 170C377.12 170 380 172.88 380 176.43C380 181.14 380 188.86 380 193.57C380 197.12 377.12 200 373.57 200C368.86 200 361.14 200 356.43 200C352.88 200 350 197.12 350 193.57C350 188.86 350 181.14 350 176.43C350 172.88 352.88 170 356.43 170C361.14 170 368.86 170 373.57 170Z" id="e2GtjraJ9u"></path><path d="M493.57 130C497.12 130 500 132.88 500 136.43C500 141.14 500 148.86 500 153.57C500 157.12 497.12 160 493.57 160C488.86 160 481.14 160 476.43 160C472.88 160 470 157.12 470 153.57C470 148.86 470 141.14 470 136.43C470 132.88 472.88 130 476.43 130C481.14 130 488.86 130 493.57 130Z" id="f3MFOcLHo"></path><path d="M413.57 130C417.12 130 420 132.88 420 136.43C420 141.14 420 148.86 420 153.57C420 157.12 417.12 160 413.57 160C408.86 160 401.14 160 396.43 160C392.88 160 390 157.12 390 153.57C390 148.86 390 141.14 390 136.43C390 132.88 392.88 130 396.43 130C401.14 130 408.86 130 413.57 130Z" id="aONQYurp"></path><path d="M293.57 130C297.12 130 300 132.88 300 136.43C300 141.14 300 148.86 300 153.57C300 157.12 297.12 160 293.57 160C288.86 160 281.14 160 276.43 160C272.88 160 270 157.12 270 153.57C270 148.86 270 141.14 270 136.43C270 132.88 272.88 130 276.43 130C281.14 130 288.86 130 293.57 130Z" id="aWZY0azY7"></path><path d="M333.57 130C337.12 130 340 132.88 340 136.43C340 141.14 340 148.86 340 153.57C340 157.12 337.12 160 333.57 160C328.86 160 321.14 160 316.43 160C312.88 160 310 157.12 310 153.57C310 148.86 310 141.14 310 136.43C310 132.88 312.88 130 316.43 130C321.14 130 328.86 130 333.57 130Z" id="a251AT9Qmf"></path><path d="M253.57 130C257.12 130 260 132.88 260 136.43C260 141.14 260 148.86 260 153.57C260 157.12 257.12 160 253.57 160C248.86 160 241.14 160 236.43 160C232.88 160 230 157.12 230 153.57C230 148.86 230 141.14 230 136.43C230 132.88 232.88 130 236.43 130C241.14 130 248.86 130 253.57 130Z" id="a11WDikvA"></path><path d="M213.57 130C217.12 130 220 132.88 220 136.43C220 141.14 220 148.86 220 153.57C220 157.12 217.12 160 213.57 160C208.86 160 201.14 160 196.43 160C192.88 160 190 157.12 190 153.57C190 148.86 190 141.14 190 136.43C190 132.88 192.88 130 196.43 130C201.14 130 208.86 130 213.57 130Z" id="d2mwVSKK5F"></path><path d="M133.57 130C137.12 130 140 132.88 140 136.43C140 141.14 140 148.86 140 153.57C140 157.12 137.12 160 133.57 160C128.86 160 121.14 160 116.43 160C112.88 160 110 157.12 110 153.57C110 148.86 110 141.14 110 136.43C110 132.88 112.88 130 116.43 130C121.14 130 128.86 130 133.57 130Z" id="c1hh84SFa4"></path><path d="M173.57 130C177.12 130 180 132.88 180 136.43C180 141.14 180 148.86 180 153.57C180 157.12 177.12 160 173.57 160C168.86 160 161.14 160 156.43 160C152.88 160 150 157.12 150 153.57C150 148.86 150 141.14 150 136.43C150 132.88 152.88 130 156.43 130C161.14 130 168.86 130 173.57 130Z" id="bSQgRwrmo"></path><path d="M453.57 130C457.12 130 460 132.88 460 136.43C460 141.14 460 148.86 460 153.57C460 157.12 457.12 160 453.57 160C448.86 160 441.14 160 436.43 160C432.88 160 430 157.12 430 153.57C430 148.86 430 141.14 430 136.43C430 132.88 432.88 130 436.43 130C441.14 130 448.86 130 453.57 130Z" id="a7QLPugwU"></path><path d="M373.57 130C377.12 130 380 132.88 380 136.43C380 141.14 380 148.86 380 153.57C380 157.12 377.12 160 373.57 160C368.86 160 361.14 160 356.43 160C352.88 160 350 157.12 350 153.57C350 148.86 350 141.14 350 136.43C350 132.88 352.88 130 356.43 130C361.14 130 368.86 130 373.57 130Z" id="b1ZNOgK62"></path></defs><g><g><g><g><use xlink:href="#a93QD03rT" opacity="1" fill-opacity="0" stroke="#000000" stroke-width="12" stroke-opacity="1"></use></g></g><g><use xlink:href="#aDCmlRVtD" opacity="1" fill="#1f201d" fill-opacity="0.57"></use></g><g><use xlink:href="#b2wy9EQdfd" opacity="1" fill="#2a2b29" fill-opacity="1"></use></g><g><use xlink:href="#b2C2uJvzrW" opacity="1" fill="#222320" fill-opacity="1"></use></g><g><use xlink:href="#awlX0uTqF" opacity="1" fill="#222320" fill-opacity="1"></use></g><g><use xlink:href="#cKZ3Eq8Y" opacity="1" fill="#222320" fill-opacity="1"></use></g><g><use xlink:href="#bivqarzjx" opacity="1" fill="#222320" fill-opacity="1"></use></g><g><use xlink:href="#e1HVOfWog" opacity="1" fill="#2a2b29" fill-opacity="1"></use></g><g><use xlink:href="#e5n8gXE4LI" opacity="1" fill="#222320" fill-opacity="1"></use></g><g><use xlink:href="#f9ByJnwu3" opacity="1" fill="#222320" fill-opacity="1"></use></g><g><use xlink:href="#b8qJ4xVuT" opacity="1" fill="#222320" fill-opacity="1"></use></g><g><use xlink:href="#e1kH0p1ehb" opacity="1" fill="#222320" fill-opacity="1"></use></g><g><use xlink:href="#d1gXJWQ8FQ" opacity="1" fill="#222320" fill-opacity="1"></use></g><g><use xlink:href="#apjdx1s16" opacity="1" fill="#222320" fill-opacity="1"></use></g><g><use xlink:href="#b6MOZXGpTN" opacity="1" fill="#222320" fill-opacity="1"></use></g><g><use xlink:href="#e5nDfotwBf" opacity="1" fill="#222320" fill-opacity="1"></use></g><g><use xlink:href="#cP6fTfSaU" opacity="1" fill="#222320" fill-opacity="1"></use></g><g><use xlink:href="#a686ScZtxh" opacity="1" fill="#222320" fill-opacity="1"></use></g><g><use xlink:href="#aBOfu4aEO" opacity="1" fill="#222320" fill-opacity="1"></use></g><g><use xlink:href="#dJTi21ehY" opacity="1" fill="#222320" fill-opacity="1"></use></g><g><use xlink:href="#b16mu5qPNd" opacity="1" fill="#222320" fill-opacity="1"></use></g><g><use xlink:href="#jDdwlu0Vh" opacity="1" fill="#222320" fill-opacity="1"></use></g><g><use xlink:href="#ckdmwjoP" opacity="1" fill="#222320" fill-opacity="1"></use></g><g><use xlink:href="#a6fwOxk2Qr" opacity="1" fill="#222320" fill-opacity="1"></use></g><g><use xlink:href="#b1DxFWvt0I" opacity="1" fill="#222320" fill-opacity="1"></use></g><g><use xlink:href="#c4ZFYQgjOi" opacity="1" fill="#222320" fill-opacity="1"></use></g><g><use xlink:href="#c9Z4MNJfb" opacity="1" fill="#222320" fill-opacity="1"></use></g><g><use xlink:href="#b1D55fXO4o" opacity="1" fill="#222320" fill-opacity="1"></use></g><g><use xlink:href="#h5XrL3OVzb" opacity="1" fill="#222320" fill-opacity="1"></use></g><g><use xlink:href="#fc15EZk7e" opacity="1" fill="#222320" fill-opacity="1"></use></g><g><use xlink:href="#d29OvquluF" opacity="1" fill="#222320" fill-opacity="1"></use></g><g><use xlink:href="#c1uXZfk7mB" opacity="1" fill="#222320" fill-opacity="1"></use></g><g><use xlink:href="#bGq7i3sq" opacity="1" fill="#222320" fill-opacity="1"></use></g><g><use xlink:href="#b1xO1ZNDPc" opacity="1" fill="#222320" fill-opacity="1"></use></g><g><use xlink:href="#a4IWPA7Lv" opacity="1" fill="#222320" fill-opacity="1"></use></g><g><use xlink:href="#aldT9G0Mw" opacity="1" fill="#222320" fill-opacity="1"></use></g><g><use xlink:href="#e2GtjraJ9u" opacity="1" fill="#222320" fill-opacity="1"></use></g><g><use xlink:href="#f3MFOcLHo" opacity="1" fill="#222320" fill-opacity="1"></use></g><g><use xlink:href="#aONQYurp" opacity="1" fill="#222320" fill-opacity="1"></use></g><g><use xlink:href="#aWZY0azY7" opacity="1" fill="#222320" fill-opacity="1"></use></g><g><use xlink:href="#a251AT9Qmf" opacity="1" fill="#222320" fill-opacity="1"></use></g><g><use xlink:href="#a11WDikvA" opacity="1" fill="#222320" fill-opacity="1"></use></g><g><use xlink:href="#d2mwVSKK5F" opacity="1" fill="#222320" fill-opacity="1"></use></g><g><use xlink:href="#c1hh84SFa4" opacity="1" fill="#222320" fill-opacity="1"></use></g><g><use xlink:href="#bSQgRwrmo" opacity="1" fill="#222320" fill-opacity="1"></use></g><g><use xlink:href="#a7QLPugwU" opacity="1" fill="#222320" fill-opacity="1"></use></g><g><use xlink:href="#b1ZNOgK62" opacity="1" fill="#222320" fill-opacity="1"></use></g></g></g></svg>